<svg width="25" height="24" viewBox="0 0 25 24" fill="none" xmlns="http://www.w3.org/2000/svg">
<g clip-path="url(#clip0_87_132)">
<path d="M19.5 10C19.5 9.46875 19.0312 9 18.5 9L6.5 9C5.9375 9 5.5 9.46875 5.5 10L5.5 18C5.5 18.5625 5.9375 19 6.5 19H18.5C19.0312 19 19.5 18.5625 19.5 18V10ZM18.5 8C19.5938 8 20.5 8.90625 20.5 10V18C20.5 19.125 19.5938 20 18.5 20H6.5C5.375 20 4.5 19.125 4.5 18L4.5 10C4.5 8.90625 5.375 8 6.5 8L18.5 8ZM18.5 6C18.75 6 19 6.25 19 6.5C19 6.78125 18.75 7 18.5 7L6.5 7C6.21875 7 6 6.78125 6 6.5C6 6.25 6.21875 6 6.5 6L18.5 6ZM17 4C17.25 4 17.5 4.25 17.5 4.5C17.5 4.78125 17.25 5 17 5L8 5C7.71875 5 7.5 4.78125 7.5 4.5C7.5 4.25 7.71875 4 8 4L17 4Z" fill="#8C8B89"/>
</g>
<defs>
<clipPath id="clip0_87_132">
<rect width="24" height="24" fill="white" transform="translate(0.5)"/>
</clipPath>
</defs>
</svg>
