<svg width="25" height="24" viewBox="0 0 25 24" fill="none" xmlns="http://www.w3.org/2000/svg">
<path d="M3.51008 9.5C3.51008 10.6875 4.07228 11.6562 4.91558 12.5312C5.04051 12.6875 5.07175 12.9375 4.97805 13.125C4.63448 13.75 4.25968 14.4062 3.82241 15C4.79065 14.9062 5.79012 14.5625 6.66465 14.1875C6.85205 14.0938 7.03945 14 7.22685 13.9062C7.32055 13.8438 7.44549 13.8438 7.53919 13.8438C8.03892 13.9688 8.50742 14 9.00716 14C12.193 14 14.5042 11.8437 14.5042 9.5C14.5042 7.1875 12.193 5 9.00716 5C5.79012 5 3.51008 7.1875 3.51008 9.5ZM9.00716 4C12.5678 4 15.5037 6.46875 15.5037 9.53125C15.5037 12.5625 12.5678 15.0312 9.00716 15.0312C8.47619 15.0312 8.00769 14.9688 7.53919 14.875C7.38302 14.9375 7.22685 15.0312 7.07069 15.0938C5.94628 15.5938 4.60325 16 3.26021 16C2.94787 16 2.66677 15.8438 2.57307 15.5625C2.44814 15.2812 2.47937 14.9688 2.69801 14.75C3.19774 14.2188 3.57254 13.5938 3.94734 12.9375C3.10404 12.0312 2.51061 10.9062 2.51061 9.5C2.51061 6.46875 5.41531 4 9.00716 4ZM16.4719 9.03125C16.4407 8.6875 16.3782 8.34375 16.2845 8.03125C19.7515 8.15625 22.5 10.5625 22.5 13.5312C22.5 14.9062 21.8753 16.0312 21.0633 16.9688C21.4068 17.625 21.8129 18.2188 22.2814 18.75C22.5 18.9688 22.5312 19.2812 22.4375 19.5625C22.3126 19.8438 22.0315 20 21.7504 20C20.4074 20 19.0331 19.5938 17.9087 19.0938C17.7525 19 17.5964 18.9375 17.4714 18.875C16.9717 18.9688 16.5032 19 16.0034 19C13.4111 19 11.2247 17.75 10.1628 15.9375C10.5064 15.875 10.8499 15.8125 11.1935 15.7187C12.1305 17.0625 13.8483 18 16.0034 18C16.4719 18 16.9405 17.9688 17.4402 17.8438C17.5339 17.8438 17.6588 17.8438 17.7525 17.9062C17.9399 18 18.1273 18.0938 18.3147 18.1875C19.1893 18.5625 20.1887 18.9062 21.1882 19C20.7197 18.375 20.3449 17.75 20.0013 17.125C19.9076 16.9375 19.9389 16.6875 20.0638 16.5312C20.9383 15.6562 21.5005 14.6875 21.5005 13.5C21.5005 11.2812 19.4079 9.21875 16.4719 9.03125Z" fill="#8C8B89"/>
</svg>
