<svg width="25" height="24" viewBox="0 0 25 24" fill="none" xmlns="http://www.w3.org/2000/svg">
<path d="M12.8258 4.11724L21.3271 11.6209C21.5459 11.8085 21.5459 12.1212 21.3896 12.34C21.2021 12.5589 20.8896 12.5589 20.6708 12.3713L19.5143 11.3395V17.4988C19.5143 18.9057 18.3892 20 17.014 20H8.01262C6.60616 20 5.51225 18.9057 5.51225 17.4988L5.51225 11.3395L4.32457 12.3713C4.13704 12.5589 3.79324 12.5589 3.63696 12.34C3.44944 12.1212 3.44944 11.8085 3.66822 11.6209L12.1695 4.11724C12.357 3.96092 12.6383 3.96092 12.8258 4.11724ZM6.5124 17.4988C6.5124 18.3429 7.16874 18.9995 8.01262 18.9995H10.0129L10.0129 13.9971C10.0129 13.4656 10.4505 12.9966 11.0131 12.9966H14.0135C14.5449 12.9966 15.0137 13.4656 15.0137 13.9971V18.9995H17.014C17.8266 18.9995 18.5142 18.3429 18.5142 17.4988V10.4641L12.5133 5.18026L6.5124 10.4641L6.5124 17.4988ZM11.0131 18.9995H14.0135V13.9971H11.0131L11.0131 18.9995Z" fill="#8C8B89"/>
</svg>
