<svg width="25" height="24" viewBox="0 0 25 24" fill="none" xmlns="http://www.w3.org/2000/svg">
<path d="M8.50217 16.9818H5.50054V18.4797C5.50054 18.7606 5.71941 18.979 6.00081 18.979H8.0019C8.25204 18.979 8.50217 18.7606 8.50217 18.4797V16.9818ZM8.0019 19.9776H6.00081C5.15661 19.9776 4.5 19.3223 4.5 18.4797L4.5 5.4979C4.5 4.68654 5.15661 4 6.00081 4L8.0019 4C8.3771 4 8.72104 4.15603 9.00244 4.40568C9.25258 4.15603 9.59651 4 10.003 4H12.0041C12.5356 4 12.9733 4.28086 13.2547 4.71774C13.3485 4.65533 13.4424 4.62413 13.5674 4.59292L15.4122 4.06241C16.1938 3.84397 17.0068 4.31206 17.1944 5.12343L17.7572 7.27666L17.8823 7.77596L19.8833 15.4527L20.0084 15.9208L20.4461 17.6059C20.665 18.3861 20.196 19.2287 19.4143 19.4159L17.5696 19.9464C16.7879 20.1648 16.0062 19.6967 15.7874 18.8854L15.2246 16.7322L15.0995 16.2329L13.5049 10.054L13.5049 18.4797C13.5049 19.3223 12.817 19.9776 12.0041 19.9776H10.003C9.59651 19.9776 9.25258 19.8528 9.00244 19.6031C8.72104 19.8528 8.3771 19.9776 8.0019 19.9776ZM13.5049 6.02841C13.5049 6.05961 13.5049 6.12203 13.5049 6.15323L13.9426 7.80716L16.6628 7.05821L16.2251 5.37308C16.1626 5.09222 15.9124 4.96739 15.6936 5.02981L13.8176 5.52911C13.6612 5.59152 13.5049 5.77876 13.5049 5.9972V6.02841ZM12.5043 5.4979C12.5043 5.24825 12.2542 4.9986 12.0041 4.9986H10.003C9.72158 4.9986 9.50271 5.24825 9.50271 5.4979V6.9958L12.5043 6.9958V5.4979ZM10.003 18.979H12.0041C12.2542 18.979 12.5043 18.7606 12.5043 18.4797V16.9818H9.50271V18.4797C9.50271 18.7606 9.72158 18.979 10.003 18.979ZM8.50217 7.9944H5.50054L5.50054 15.9832H8.50217L8.50217 7.9944ZM8.50217 5.4979C8.50217 5.24825 8.25204 4.9986 8.0019 4.9986H6.00081C5.71941 4.9986 5.50054 5.24825 5.50054 5.4979V6.9958H8.50217V5.4979ZM12.5043 15.9832L12.5043 7.9944L9.50271 7.9944L9.50271 15.9832L12.5043 15.9832ZM16.913 8.02561L14.1928 8.77456L16.0688 15.9832L18.789 15.2343L16.913 8.02561ZM19.0391 16.2016L16.3189 16.9506L16.7566 18.6357C16.8192 18.9166 17.0693 19.0414 17.2882 18.979L19.1642 18.4485C19.3831 18.4173 19.5394 18.1364 19.4769 17.8556L19.0391 16.2016Z" fill="#8C8B89"/>
</svg>
